<?xml version="1.0" encoding="UTF-8" standalone="no"?>
<svg
   xmlns:dc="http://purl.org/dc/elements/1.1/"
   xmlns:cc="http://creativecommons.org/ns#"
   xmlns:rdf="http://www.w3.org/1999/02/22-rdf-syntax-ns#"
   xmlns:svg="http://www.w3.org/2000/svg"
   xmlns="http://www.w3.org/2000/svg"
   xmlns:sodipodi="http://sodipodi.sourceforge.net/DTD/sodipodi-0.dtd"
   xmlns:inkscape="http://www.inkscape.org/namespaces/inkscape"
   version="1.0"
   width="900"
   height="600"
   id="svg8"
   sodipodi:docname="en_square.svg"
   inkscape:version="0.92.3 (2405546, 2018-03-11)">
  <metadata
     id="metadata14">
    <rdf:RDF>
      <cc:Work
         rdf:about="">
        <dc:format>image/svg+xml</dc:format>
        <dc:type
           rdf:resource="http://purl.org/dc/dcmitype/StillImage" />
        <dc:title></dc:title>
      </cc:Work>
    </rdf:RDF>
  </metadata>
  <defs
     id="defs12" />
  <sodipodi:namedview
     pagecolor="#ffffff"
     bordercolor="#666666"
     borderopacity="1"
     objecttolerance="10"
     gridtolerance="10"
     guidetolerance="10"
     inkscape:pageopacity="0"
     inkscape:pageshadow="2"
     inkscape:window-width="1920"
     inkscape:window-height="1137"
     id="namedview10"
     showgrid="false"
     inkscape:zoom="1.2622222"
     inkscape:cx="381.30651"
     inkscape:cy="294.63708"
     inkscape:window-x="1912"
     inkscape:window-y="-8"
     inkscape:window-maximized="1"
     inkscape:current-layer="svg8" />
  <rect
     y="-0.066132963"
     style="fill:#f0f0f0;stroke-width:1.76361823"
     width="901.78876"
     height="602.77838"
     id="rect2"
     x="-0.10211315" />
  <polygon
     style="fill:#d80027"
     points="512,287.996 512,223.996 288,223.996 288,85.33 224,85.33 224,223.996 0,223.996 0,287.996 224,287.996 224,426.662 288,426.662 288,287.996 "
     id="polygon4"
     transform="matrix(1.7613061,0,0,1.7659333,-0.10210586,-150.7585)" />
  <g
     id="g12"
     transform="matrix(1.7613061,0,0,1.7659333,-0.10210586,-150.7585)">
    <polygon
       style="fill:#0052b4"
       points="393.785,315.358 512,381.034 512,315.358 "
       id="polygon6" />
    <polygon
       style="fill:#0052b4"
       points="512,426.662 512,395.188 368.307,315.358 311.652,315.358 "
       id="polygon8" />
    <polygon
       style="fill:#0052b4"
       points="458.634,426.662 311.652,344.998 311.652,426.662 "
       id="polygon10" />
  </g>
  <polygon
     style="fill:#f0f0f0"
     points="512,426.662 512,395.188 368.307,315.358 311.652,315.358 "
     id="polygon14"
     transform="matrix(1.7613061,0,0,1.7659333,-0.10210586,-150.7585)" />
  <polygon
     style="fill:#d80027"
     points="512,426.662 512,395.188 368.307,315.358 311.652,315.358 "
     id="polygon16"
     transform="matrix(1.7613061,0,0,1.7659333,-0.10210586,-150.7585)" />
  <g
     id="g22"
     transform="matrix(1.7613061,0,0,1.7659333,-0.10210586,-150.7585)">
    <polygon
       style="fill:#0052b4"
       points="90.341,315.356 0,365.546 0,315.356 "
       id="polygon18" />
    <polygon
       style="fill:#0052b4"
       points="200.348,329.51 200.348,426.661 25.491,426.661 "
       id="polygon20" />
  </g>
  <polygon
     style="fill:#d80027"
     points="143.693,315.358 0,395.188 0,426.662 200.348,315.358 "
     id="polygon24"
     transform="matrix(1.7613061,0,0,1.7659333,-0.10210586,-150.7585)" />
  <g
     id="g32"
     transform="matrix(1.7613061,0,0,1.7659333,-0.10210586,-150.7585)">
    <polygon
       style="fill:#0052b4"
       points="118.215,196.634 0,130.958 0,196.634 "
       id="polygon26" />
    <polygon
       style="fill:#0052b4"
       points="0,85.33 0,116.804 143.693,196.634 200.348,196.634 "
       id="polygon28" />
    <polygon
       style="fill:#0052b4"
       points="53.366,85.33 200.348,166.994 200.348,85.33 "
       id="polygon30" />
  </g>
  <polygon
     style="fill:#f0f0f0"
     points="0,85.33 0,116.804 143.693,196.634 200.348,196.634 "
     id="polygon34"
     transform="matrix(1.7613061,0,0,1.7659333,-0.10210586,-150.7585)" />
  <polygon
     style="fill:#d80027"
     points="0,85.33 0,116.804 143.693,196.634 200.348,196.634 "
     id="polygon36"
     transform="matrix(1.7613061,0,0,1.7659333,-0.10210586,-150.7585)" />
  <g
     id="g42"
     transform="matrix(1.7613061,0,0,1.7659333,-0.10210586,-150.7585)">
    <polygon
       style="fill:#0052b4"
       points="421.659,196.636 512,146.446 512,196.636 "
       id="polygon38" />
    <polygon
       style="fill:#0052b4"
       points="311.652,182.482 311.652,85.331 486.509,85.331 "
       id="polygon40" />
  </g>
  <polygon
     transform="matrix(1.7599264,0,0,1.7614453,0.60433071,-150.37026)"
     style="fill:#d80027"
     points="512,85.33 311.652,196.634 368.307,196.634 512,116.804 "
     id="polygon44" />
</svg>
